<?xml version="1.0" standalone="no"?>
<!DOCTYPE svg PUBLIC "-//W3C//DTD SVG 20010904//EN"
 "http://www.w3.org/TR/2001/REC-SVG-20010904/DTD/svg10.dtd">
<svg version="1.0" xmlns="http://www.w3.org/2000/svg"
 width="163.000000pt" height="163.000000pt" viewBox="0 0 163.000000 163.000000"
 preserveAspectRatio="xMidYMid meet">
<metadata>
Created by potrace 1.14, written by Peter Selinger 2001-2017
</metadata>
<g transform="translate(0.000000,163.000000) scale(0.100000,-0.100000)"
fill="#000000" stroke="none">
<path d="M695 1496 c-217 -41 -404 -183 -500 -380 -100 -202 -99 -408 0 -611
81 -164 219 -287 394 -349 80 -28 96 -31 221 -31 122 0 143 3 224 29 295 97
490 384 473 696 -19 355 -298 634 -656 654 -52 3 -114 0 -156 -8z m480 -576
l0 -35 -117 -3 -117 -3 -7 26 c-12 48 7 56 130 53 l111 -3 0 -35z m-408 -63
c85 -151 82 -150 83 -19 l0 112 25 0 25 0 0 -151 0 -150 -42 3 -43 3 -65 115
-65 115 -3 -118 -3 -117 -24 0 -25 0 0 150 0 150 43 0 42 0 52 -93z m573 -57
l0 -150 -30 0 -30 0 0 122 0 122 -28 -27 c-28 -27 -29 -27 -45 -9 -17 18 -15
21 29 56 29 22 58 36 76 36 l28 0 0 -150z m-927 39 c-17 -17 -37 -1 -22 17 8
10 15 12 23 4 7 -7 7 -13 -1 -21z m63 20 c10 -17 -13 -36 -27 -22 -12 12 -4
33 11 33 5 0 12 -5 16 -11z m699 -54 l0 -30 -114 -3 c-64 -1 -119 2 -124 7 -5
5 -7 21 -3 36 l7 26 117 -3 117 -3 0 -30z m-665 -5 c0 -5 -5 -12 -11 -16 -14
-8 -33 11 -25 25 7 11 36 4 36 -9z m-120 1 c0 -14 -18 -23 -30 -16 -6 4 -8 11
-5 16 8 12 35 12 35 0z m23 -62 c-17 -17 -37 -1 -22 17 8 10 15 12 23 4 7 -7
7 -13 -1 -21z m67 12 c0 -14 -18 -23 -30 -16 -6 4 -8 11 -5 16 8 12 35 12 35
0z m690 -35 c6 -8 10 -25 8 -38 -3 -22 -6 -23 -120 -26 l-117 -3 -7 26 c-11
46 8 55 121 55 77 0 106 -4 115 -14z"/>
</g>
</svg>
